<svg xmlns="http://www.w3.org/2000/svg" version="1.1" xmlns:xlink="http://www.w3.org/1999/xlink" xmlns:svgjs="http://svgjs.dev/svgjs" width="1000" height="159" viewBox="0 0 1000 159"><g transform="matrix(1,0,0,1,-0.6060500402177809,0.1057761502084702)"><svg viewBox="0 0 396 63" data-background-color="#000000" preserveAspectRatio="xMidYMid meet" height="159" width="1000" xmlns="http://www.w3.org/2000/svg" xmlns:xlink="http://www.w3.org/1999/xlink"><g id="tight-bounds" transform="matrix(1,0,0,1,0.23999581592624963,-0.041911304799583604)"><svg viewBox="0 0 395.52 63.08382260959915" height="63.08382260959915" width="395.52"><g><svg viewBox="0 0 516.0344552916753 82.30538541176469" height="63.08382260959915" width="395.52"><g><rect width="7.385457309045458" height="82.30538541176469" x="93.7953401055475" y="0" fill="#ffffff" opacity="1" stroke-width="0" stroke="transparent" fill-opacity="1" class="rect-o-0" data-fill-palette-color="primary" rx="1%" id="o-0" data-palette-color="#ffffff"></rect></g><g transform="matrix(1,0,0,1,120.51445529167532,0.2047397647058773)"><svg viewBox="0 0 395.52 81.89590588235293" height="81.89590588235293" width="395.52"><g id="textblocktransform"><svg viewBox="0 0 395.52 81.89590588235293" height="81.89590588235293" width="395.52" id="textblock"><g><svg viewBox="0 0 395.52 81.89590588235293" height="81.89590588235293" width="395.52"><g transform="matrix(1,0,0,1,0,0)"><svg width="395.52" viewBox="1.8600000143051147 -36.040000915527344 176.3699951171875 36.53000259399414" height="81.89590588235293" data-palette-color="#ffffff"><path d="M17.24-31.69L28.22-31.69 28.22-35.55 1.86-35.55 1.86-31.69 12.84-31.69 12.84 0 17.24 0 17.24-31.69ZM39.35-9.2L51.22-9.2 54.03 0 58.52 0 47.24-35.55 43.45-35.55 31.98 0 36.5 0 39.35-9.2ZM50.02-13.13L40.57-13.13 45.33-28.56 50.02-13.13ZM82.86-8.98L82.86-8.98Q82.86-7.52 82.22-6.46 81.59-5.4 80.59-4.71L80.59-4.71Q79.58-4 78.3-3.67 77.02-3.34 75.7-3.34L75.7-3.34Q74.04-3.34 72.64-3.8 71.24-4.25 70.16-5.15L70.16-5.15Q69.09-6.03 68.4-7.31 67.72-8.59 67.5-10.25L67.5-10.25 62.89-10.25Q62.96-7.96 63.9-6.09 64.84-4.22 66.45-2.83L66.45-2.83Q68.26-1.22 70.71-0.37 73.16 0.49 75.7 0.49L75.7 0.49Q77.83 0.49 79.95-0.11 82.08-0.71 83.76-1.9L83.76-1.9Q85.44-3.08 86.51-4.86 87.57-6.64 87.57-9.03L87.57-9.03Q87.57-11.4 86.58-13.21 85.59-15.01 83.98-16.26L83.98-16.26Q82.34-17.6 80.37-18.47 78.39-19.34 76.41-19.95L76.41-19.95Q75.21-20.31 73.86-20.8 72.5-21.29 71.36-22.02L71.36-22.02Q70.19-22.75 69.43-23.82 68.67-24.88 68.65-26.42L68.65-26.42Q68.65-27.83 69.22-28.91 69.79-29.98 70.77-30.71L70.77-30.71Q71.72-31.45 72.96-31.81 74.19-32.18 75.48-32.18L75.48-32.18Q77.09-32.18 78.38-31.68 79.66-31.18 80.59-30.27L80.59-30.27Q81.51-29.37 82.08-28.11 82.64-26.86 82.83-25.32L82.83-25.32 87.47-25.32Q87.42-27.76 86.42-29.74 85.42-31.71 83.76-33.11L83.76-33.11Q82.1-34.5 79.95-35.27 77.8-36.04 75.48-36.04L75.48-36.04Q73.38-36.04 71.31-35.39 69.23-34.74 67.6-33.5L67.6-33.5Q65.96-32.25 64.95-30.44 63.94-28.64 63.94-26.34L63.94-26.34Q63.94-24.05 64.95-22.35 65.96-20.65 67.57-19.41L67.57-19.41Q69.16-18.19 71.1-17.32 73.04-16.46 74.92-15.84L74.92-15.84Q76.22-15.43 77.62-14.92 79.02-14.4 80.2-13.65L80.2-13.65Q81.37-12.87 82.11-11.74 82.86-10.62 82.86-8.98ZM98.82-12.01L102.78-16.5 113.52 0 119.01 0 105.75-20 118.18-35.55 112.69-35.55 102.26-22.49 98.82-18.19 98.82-35.55 94.21-35.55 94.21 0 98.82 0 98.82-12.01ZM145.74-35.55L124.26-35.55 124.26-31.62 132.58-31.62 132.58-3.91 124.26-3.91 124.26 0 145.74 0 145.74-3.91 137.22-3.91 137.22-31.62 145.74-31.62 145.74-35.55ZM167.25-31.69L178.23-31.69 178.23-35.55 151.87-35.55 151.87-31.69 162.85-31.69 162.85 0 167.25 0 167.25-31.69Z" opacity="1" transform="matrix(1,0,0,1,0,0)" fill="#ffffff" class="undefined-text-0" data-fill-palette-color="primary" id="text-0"></path></svg></g></svg></g></svg></g></svg></g><g transform="matrix(1,0,0,1,0,0.2047397647058773)"><svg viewBox="0 0 74.46168222846514 81.89590588235293" height="81.89590588235293" width="74.46168222846514"><g><svg xmlns="http://www.w3.org/2000/svg" xmlns:xlink="http://www.w3.org/1999/xlink" version="1.0" x="0" y="0" viewBox="2 0 12.883129119873047 14.1693754196167" style="enable-background:new 0 0 16 16;" xml:space="preserve" height="81.89590588235293" width="74.46168222846514" class="icon-icon-0" data-fill-palette-color="accent" id="icon-0"><path d="M10.216 14.068c-0.122 0.135-0.322 0.135-0.444 0.001l-2.769-3.084c-0.123-0.135-0.118-0.351 0.011-0.479l0.475-0.476c0.129-0.128 0.338-0.127 0.464 0.004L9.758 11.9c0.127 0.131 0.332 0.128 0.454-0.007l3.424-3.752c0.123-0.134 0.334-0.145 0.47-0.022l0.42 0.33c0.458 0.458 0.494 0.506 0 1L10.216 14.068z" fill="#ffffff" data-fill-palette-color="accent"></path><path d="M7.5 2C7 2 7 3 7 3h1C8 3 8 2 7.5 2z" fill="#ffffff" data-fill-palette-color="accent"></path><path d="M12 2h-2C9.914 1 9 0 7.5 0S5.086 1 5 2H3c0 0-1 0-1 1 0 0.815 0 9 0 10s1 1 1 1h5.628l-2.5-2.485c-0.42-0.461-0.191-1.052 0.25-1.492l0.75-0.747c0.217-0.217 0.444-0.248 0.75-0.248 0.309 0 0.785 0.279 1 0.502l1.145 1.25L13 7.571C13 7.571 13 4 13 3S12 2 12 2zM4.5 8H4c0 0-0.5 0-0.5-0.5S4 7 4 7h0.5C4.5 7 5 7 5 7.5S4.5 8 4.5 8zM4.5 6H4c0 0-0.5 0-0.5-0.5S4 5 4 5h0.5C4.5 5 5 5 5 5.5S4.5 6 4.5 6zM11 8H6.5C6.5 8 6 8 6 7.5S6.5 7 6.5 7H11c0 0 0.5 0 0.5 0.5S11 8 11 8zM11 6H6.5C6.5 6 6 6 6 5.5S6.5 5 6.5 5H11c0 0 0.5 0 0.5 0.5S11 6 11 6zM3 4c0 0 0-1 1-1s2 0 2 0 0-1.938 1.5-1.938S9.027 3 9 3c0 0 1 0 2 0s1 1 1 1H3z" fill="#ffffff" data-fill-palette-color="accent"></path></svg></g></svg></g></svg></g><defs></defs></svg><rect width="395.52" height="63.08382260959915" fill="none" stroke="none" visibility="hidden"></rect></g></svg></g></svg>